<svg width="24" height="24" viewBox="0 0 24 24" fill="none" xmlns="http://www.w3.org/2000/svg"><path fill-rule="evenodd" clip-rule="evenodd" d="M12.2207 3C11.6132 3 11.1207 3.49249 11.1207 4.1C11.1207 4.70751 11.6132 5.2 12.2207 5.2C15.4826 5.2 18.1062 7.81223 18.1062 11.0092C18.1062 13.0949 16.9926 14.9296 15.3073 15.9565C14.4112 16.5026 13.3553 16.8184 12.2207 16.8184C10.8964 16.8184 9.67574 16.3873 8.69323 15.66L10.7032 14.0402C11.0526 13.7586 10.8876 13.2041 10.4463 13.1652L5.13973 12.6045C4.86002 12.5753 4.61929 12.7693 4.58837 13.0489L4.00242 18.3457C3.96071 18.7866 4.46741 19.0657 4.81686 18.7841L6.93917 17.0737C8.35647 18.2857 10.2031 19.0184 12.2207 19.0184C13.7693 19.0184 15.22 18.5861 16.4522 17.8352C18.7587 16.4296 20.3062 13.9013 20.3062 11.0092C20.3062 6.57449 16.6748 3 12.2207 3Z" fill="white"></path></svg>